<svg width="194" height="47" viewBox="0 0 194 47" fill="none" xmlns="http://www.w3.org/2000/svg">
<path d="M3.6 33.92C3.6 35.32 4.56 36.2 5.88 36.2C7.2 36.2 8.12 35.24 8.12 33.92V14.8L22.6 34.64C23.32 35.68 24.2 36.2 25.24 36.2C26.84 36.2 28 35 28 33.36V10C28 8.72 27.08 7.8 25.76 7.8C24.44 7.8 23.52 8.72 23.52 10V28.76L9.28 9.32C8.6 8.32 7.72 7.8 6.64 7.8C4.88 7.8 3.6 9.04 3.6 10.84V33.92ZM36.2816 33.36C38.3616 35.4 40.9616 36.4 44.0816 36.4C47.2016 36.4 49.8016 35.36 51.9216 33.28C54.0416 31.2 55.1216 28.64 55.1216 25.64C55.1216 22.64 54.0816 20.12 52.0016 18.12C49.9616 16.08 47.3616 15.08 44.2416 15.08C41.1216 15.08 38.4816 16.12 36.3616 18.2C34.2416 20.24 33.2016 22.8 33.2016 25.8C33.2016 28.8 34.2416 31.32 36.2816 33.36ZM37.6016 25.72C37.6016 23.84 38.2416 22.28 39.4816 21.04C40.7216 19.76 42.2816 19.12 44.1616 19.12C46.0416 19.12 47.6016 19.76 48.8416 21.04C50.0816 22.28 50.7216 23.84 50.7216 25.72C50.7216 27.6 50.0816 29.2 48.8416 30.48C47.6016 31.72 46.0416 32.36 44.1616 32.36C42.2816 32.36 40.7216 31.72 39.4816 30.48C38.2416 29.2 37.6016 27.6 37.6016 25.72ZM64.1988 10C64.1988 8.72 63.2788 7.8 61.9588 7.8C60.6388 7.8 59.7188 8.72 59.7188 10V33.92C59.7188 35.24 60.6388 36.2 61.9588 36.2C63.2788 36.2 64.1988 35.24 64.1988 33.92V10ZM71.8675 33.36C73.9475 35.4 76.5475 36.4 79.6675 36.4C82.7875 36.4 85.3875 35.36 87.5075 33.28C89.6275 31.2 90.7075 28.64 90.7075 25.64C90.7075 22.64 89.6675 20.12 87.5875 18.12C85.5475 16.08 82.9475 15.08 79.8275 15.08C76.7075 15.08 74.0675 16.12 71.9475 18.2C69.8275 20.24 68.7875 22.8 68.7875 25.8C68.7875 28.8 69.8275 31.32 71.8675 33.36ZM73.1875 25.72C73.1875 23.84 73.8275 22.28 75.0675 21.04C76.3075 19.76 77.8675 19.12 79.7475 19.12C81.6275 19.12 83.1875 19.76 84.4275 21.04C85.6675 22.28 86.3075 23.84 86.3075 25.72C86.3075 27.6 85.6675 29.2 84.4275 30.48C83.1875 31.72 81.6275 32.36 79.7475 32.36C77.8675 32.36 76.3075 31.72 75.0675 30.48C73.8275 29.2 73.1875 27.6 73.1875 25.72ZM95.1047 34C95.1047 35.28 96.0247 36.2 97.3047 36.2C98.6247 36.2 99.5047 35.28 99.5047 34V26.84C99.5047 22.04 101.825 19.56 105.665 19.56C106.985 19.56 107.945 18.6 107.945 17.28C107.945 16 106.985 15.08 105.665 15.08C102.785 15.08 100.425 16.76 99.1047 19.76L99.0247 17.2C99.2647 14.68 94.8647 14.68 95.1047 17.2V34ZM122.479 15.08C119.399 15.08 116.679 16.48 115.239 19.16V17.32C115.519 14.64 110.879 14.64 111.159 17.32V34C111.159 35.28 112.079 36.2 113.359 36.2C114.679 36.2 115.559 35.28 115.559 34V25.76C115.559 21.28 117.839 19.12 121.039 19.12C123.919 19.12 125.959 21.2 125.959 25.36V34C125.959 35.28 126.879 36.2 128.159 36.2C129.479 36.2 130.359 35.28 130.359 34V23.96C130.359 21.12 129.599 18.96 128.119 17.4C126.639 15.84 124.759 15.08 122.479 15.08Z" fill="black"/>
</svg>
